<svg xmlns="http://www.w3.org/2000/svg" width="923" height="659.247" viewBox="0 0 923 659.247" xmlns:xlink="http://www.w3.org/1999/xlink" role="img" artist="Katerina Limpitsouni" source="https://undraw.co/">
  <g id="Group_239" data-name="Group 239" transform="translate(-498.5 -220.096)">
    <path id="Path_3921-540" data-name="Path 3921" d="M213.491,787.3l17.2,18.569s15.913.181,12.8-8.6a32.093,32.093,0,0,1-1.323-5.845,143.611,143.611,0,0,1-1.12-18.793c0-4.117.064-7.007.064-7.007s-25.054-10.975-22.494.459a21.49,21.49,0,0,1,.512,4.352,27.241,27.241,0,0,1-2.858,12.212A27.632,27.632,0,0,1,213.491,787.3Z" transform="translate(923.559 35.167)" fill="#ffb9b9"/>
    <path id="Path_3922-541" data-name="Path 3922" d="M215.01,813.922a31.293,31.293,0,0,0,20.948,7.466c14.186-.2,40.69-.619,46.844-.875,8.234-.363,5.5-7.391,5.237-12.234v-.48c-.1-4.853-1.067-15.369-2.709-17.012s-7.263,7.317-7.263,7.317-10.975,3.2-13.994-6.4-9.151-10.527-9.151-10.527c-2.784-1.205-2.922,6.037-2.922,6.037l-23.23,11.978-13.631,2.133c-.437.2-.832.405-1.205.608C207.768,805.39,210.5,810.019,215.01,813.922Z" transform="translate(882.13 36.509)" fill="#090814"/>
    <path id="Path_2632-542" data-name="Path 2632" d="M213.491,787.3l17.2,18.569s15.913.181,12.8-8.6a32.093,32.093,0,0,1-1.323-5.845,143.611,143.611,0,0,1-1.12-18.793c0-4.117.064-7.007.064-7.007s-25.054-10.975-22.494.459a21.49,21.49,0,0,1,.512,4.352,27.241,27.241,0,0,1-2.858,12.212A27.632,27.632,0,0,1,213.491,787.3Z" transform="translate(858.904 35.167)" fill="#ffb9b9"/>
    <path id="Path_2634-543" data-name="Path 2634" d="M215.01,813.922a31.293,31.293,0,0,0,20.948,7.466c14.186-.2,40.69-.619,46.844-.875,8.234-.363,5.5-7.391,5.237-12.234v-.48c-.1-4.853-1.067-15.369-2.709-17.012s-7.263,7.317-7.263,7.317-10.975,3.2-13.994-6.4-9.151-10.527-9.151-10.527c-2.784-1.205-2.922,6.037-2.922,6.037l-23.23,11.978-13.631,2.133c-.437.2-.832.405-1.205.608C207.768,805.39,210.5,810.019,215.01,813.922Z" transform="translate(817.476 36.509)" fill="#090814"/>
    <path id="Path_3773-544" data-name="Path 3773" d="M197.635,292.124s0,28.72-10.091,31.049,13.972,28.72,27.168,25.616,18.629-24.063,18.629-24.063-11.643-14.748-6.986-22.511S197.635,292.124,197.635,292.124Z" transform="translate(557.992 -13.046) rotate(-1)" fill="#a0616a"/>
    <path id="Path_3899-545" data-name="Path 3899" d="M790.645,255.934c5.19-21.431,9.588-45.6-.2-65.342-6.792-13.7-31.918-18.308-46.321-13.374s-24.817,18.32-29.4,32.915-4.048,30.323-2.052,45.5C739.164,255.12,765.654,254.611,790.645,255.934Z" transform="translate(360 91.102)" fill="#090814"/>
    <path id="Path_133-546" data-name="Path 133" d="M229.669,722.035a158.392,158.392,0,0,0,7.4,43.785c.1.329.211.653.319.982H265c-.029-.295-.059-.624-.088-.982-1.841-21.166,8.677-148.453,21.369-170.483C285.17,597.124,227.528,654.781,229.669,722.035Z" transform="translate(360 91.102)" fill="#e6e6e6"/>
    <path id="Path_134-547" data-name="Path 134" d="M231.741,765.82c.231.329.471.658.717.982h20.716c-.157-.28-.339-.609-.55-.982-3.422-6.176-13.551-24.642-22.953-43.785-10.1-20.572-19.374-41.924-18.593-49.652C210.836,674.125,203.844,727.259,231.741,765.82Z" transform="translate(360 91.102)" fill="#e6e6e6"/>
    <path id="Path_133-2-548" data-name="Path 133" d="M567.519,744.058a80.475,80.475,0,0,0,3.76,22.245c.051.167.107.332.162.5H585.47c-.015-.15-.03-.317-.045-.5-.935-10.754,4.408-75.423,10.857-86.616C595.717,680.6,566.431,709.889,567.519,744.058Z" transform="translate(360 91.102)" fill="#e6e6e6"/>
    <path id="Path_134-2-549" data-name="Path 134" d="M568.572,766.3c.117.167.239.334.364.5h10.525c-.08-.142-.172-.309-.279-.5-1.739-3.138-6.885-12.52-11.661-22.245-5.131-10.452-9.843-21.3-9.446-25.226C557.951,719.717,554.4,746.712,568.572,766.3Z" transform="translate(360 91.102)" fill="#e6e6e6"/>
    <path id="Path_3885-550" data-name="Path 3885" d="M345.964,182.157l-35.71,25.4,22.22,2.38,30.95-26.19Z" transform="translate(498.5 222.299)" fill="#090814"/>
    <path id="Path_1240-551" data-name="Path 1240" d="M893.89,388.2l37.862,23.523,10.076-41.967-28.4-9.89C912.281,370.872,905.492,380.237,893.89,388.2Z" transform="translate(124.233 504.521) rotate(-31)" fill="#ffb9b9"/>
    <path id="Path_3886-552" data-name="Path 3886" d="M206.254,615.845h28.5L248.307,533H206.249Z" transform="translate(496.5 220.524)" fill="#9f616a"/>
    <path id="Path_3888-553" data-name="Path 3888" d="M331.25,451.143s-9.308,9.94,6.1,48.688V712.294h39.358l18.857-104.558L415.56,456.5Z" transform="translate(360 91.102)" fill="#f2f2f2"/>
    <path id="Path_3889-554" data-name="Path 3889" d="M281.379,415.64A11.344,11.344,0,0,1,270.07,404.6l-2.344-88.338,40.109-76.093a11.412,11.412,0,0,1,9.307-6.03l30.566-1.962-2.639,178.065-62.7,5.358Q281.874,415.64,281.379,415.64Z" transform="translate(360 91.102)" fill="#6c63ff"/>
    <path id="Path_3890-555" data-name="Path 3890" d="M432.691,482.237l-.547-.083c-63.9-9.746-112.12-19.088-112.6-19.182l-.6-.116L335.7,422.113c-.132-4.257-3.758-123.808,3.183-158.156,6.72-33.251,38.394-38.7,42-39.213l3.624-12.008,45.787,23.826,7.986,27.484,1.622,75.327Z" transform="translate(360 91.102)" fill="#090814"/>
    <path id="Path_3891-556" data-name="Path 3891" d="M369.768,368.2c-29.5,0-53.5-32.075-53.5-71.5s24-71.5,53.5-71.5,53.5,32.075,53.5,71.5S399.268,368.2,369.768,368.2Zm0-136c-25.64,0-46.5,28.935-46.5,64.5s20.86,64.5,46.5,64.5,46.5-28.935,46.5-64.5-20.86-64.5-46.5-64.5Z" transform="translate(360 91.102)" fill="#6c63ff"/>
    <path id="Path_3892-557" data-name="Path 3892" d="M460.268,327.2a14.944,14.944,0,0,0-10.979,4.8l-76.959,0-28.19,6,4.628,35.7L449.05,352.131A14.994,14.994,0,1,0,460.268,327.2Z" transform="translate(360 91.102)" fill="#9f616a"/>
    <circle id="Ellipse_673" data-name="Ellipse 673" cx="37.091" cy="37.091" r="37.091" transform="translate(735.938 272.551) rotate(-45)" fill="#9f616a"/>
    <path id="Path_3893-558" data-name="Path 3893" d="M393.505,151.8l-1.8-3.619,9.048-4.5s9.981-16.241,28.043-11.677,26.188,7.3,26.188,7.3l9.025,4.541-4.53,4.507,8.126,2.732-5.429,2.7,6.316,3.631-3.4,18.611s-5.648-14.116-16.5-8.722-30.717-2.789-30.717-2.789L400.618,197.9s-3.559-11.705-9.906-8.584C390.712,189.318,374.5,163.5,393.505,151.8Z" transform="translate(360 91.102)" fill="#090814"/>
    <path id="Path_3894-559" data-name="Path 3894" d="M715.793,380.146l-1.585-29.734-16-13-9.269,27.534L637.1,434.089a12.993,12.993,0,1,0,15.049,12.823c0-.175-.019-.345-.026-.518Z" transform="translate(360 91.102)" fill="#ffb9b9"/>
    <circle id="Ellipse_674" data-name="Ellipse 674" cx="30.89" cy="30.89" r="30.89" transform="translate(1064.019 303.852) rotate(-28.663)" fill="#ffb9b9"/>
    <path id="Path_3900-560" data-name="Path 3900" d="M783.705,218.675a38.8,38.8,0,1,0-77.551,1.022C732.594,219.754,759.033,219.81,783.705,218.675Z" transform="translate(360 91.102)" fill="#090814"/>
    <path id="Path_3901-561" data-name="Path 3901" d="M696.339,411.143s-5.027,73.011-2.3,95.283,20.393,211.242,20.393,211.242H745.6l9.929-223.754L776.755,723.19l32.992-2.748,8.586-223.882s-2.061-84.846-18.813-93.354Z" transform="translate(360 91.102)" fill="#090814"/>
    <path id="Path_3902-562" data-name="Path 3902" d="M731.482,483.517a103.556,103.556,0,0,1-47.31-11.457l-.32-.164,12.384-82.172-.8-97.934a20.245,20.245,0,0,1,20.43-20.409l66.451.61a21.444,21.444,0,0,1,21.181,23.137l-6.219,78.51,20.565,63.724-3.574,4.752a103.462,103.462,0,0,1-82.783,41.4Z" transform="translate(360 91.102)" fill="#f2f2f2"/>
    <path id="Path_3903-563" data-name="Path 3903" d="M688.755,355.871l6.963-71.052,2.238-3.185a20.246,20.246,0,0,1,28.276-4.872l1.918,1.361-1.893,72.005Z" transform="translate(360 91.102)" fill="#f2f2f2"/>
    <path id="Path_3904-564" data-name="Path 3904" d="M974.08,703c18-4.973,25.683,22.363,7.727,27.495C963.807,735.471,956.125,708.135,974.08,703Z" transform="translate(360 91.102)" fill="#090814"/>
    <path id="Path_3905-565" data-name="Path 3905" d="M874.272,738.187c18-4.973,25.683,22.363,7.727,27.495C864,770.654,856.317,743.318,874.272,738.187Z" transform="translate(360 91.102)" fill="#090814"/>
    <path id="Path_3906-566" data-name="Path 3906" d="M833.879,449.879l.278-.078,46.367,125.882,6.113-1.718-46.7-126.785h0a8.574,8.574,0,0,0-7.171-8.018c-23.188-3.667-32.587,16.917-32.587,16.917l.093.137,47.4,128.7,6.113-1.718L807.78,458.285C821.787,444.431,833.879,449.879,833.879,449.879Z" transform="translate(360 91.102)" fill="#090814"/>
    <path id="Path_3907-567" data-name="Path 3907" d="M887.019,745.268a31.062,31.062,0,0,1-29.452-22.033c-8.849-28.965-29.729-98.365-32.5-117.2-3.6-24.522,16.7-31.5,17.147-31.646.546-.184,8.707-2.468,20-5.629,19.2-5.373,48.213-13.493,49.279-13.973a34.562,34.562,0,0,1,27.577,2.13A36.094,36.094,0,0,1,957,579.033l29.865,106.253a28.724,28.724,0,0,1-15.223,33.723c-23.044,11.071-56.841,25.84-84.172,26.257Z" transform="translate(360 91.102)" fill="#6c63ff"/>
    <path id="Path_3908-568" data-name="Path 3908" d="M828.948,445.525l-15.013-87.7-1.675-29.6-24.271,7.95,20.47,114.834a12.994,12.994,0,1,0,20.49-5.49Z" transform="translate(360 91.102)" fill="#ffb9b9"/>
    <path id="Path_3909-569" data-name="Path 3909" d="M818.041,352.327l-37.883-2.061-8.9-71.479.866-.751a21.445,21.445,0,0,1,30.312,2.217l1.752,2.038.026.129Z" transform="translate(360 91.102)" fill="#f2f2f2"/>
    <path id="Path_3910-570" data-name="Path 3910" d="M833.809,570.283l-38.72-131.052L704.04,464.962l-.544-1.924,92.951-26.269.28.948,39,132Z" transform="translate(498.5 222.299)" fill="#3f3d56"/>
    <path id="Path_3911-571" data-name="Path 3911" d="M145.769,275.046l-4.123-89.9,42.232-82.554,1.78.911-41.989,82.081,4.1,89.371Z" transform="translate(498.5 222.299)" fill="#3f3d56"/>
    <path id="Path_3912-572" data-name="Path 3912" d="M1060.5,768.8h-921a1,1,0,0,1,0-2h921a1,1,0,0,1,0,2Z" transform="translate(360 91.102)" fill="#ccc"/>
    <path id="Path_3913-573" data-name="Path 3913" d="M349.261,380.39l-8.8-26.18-2.129-87.269,3.75-12.382a34.593,34.593,0,1,1,65.335,22.6l-20.1,51.506,1.022,1.983,43.546-.353,15.468,27.843Z" transform="translate(360 91.102)" fill="#090814"/>
    <path id="Path_3914-574" data-name="Path 3914" d="M626.666,566.69l-.031.006-48.264,9.662-41.519,16.72a4.406,4.406,0,0,1-5.733-2.441q-.076-.189-.135-.385L500.653,488.69a4.387,4.387,0,0,1,2.576-5.348l42.278-17.026.031-.006,48.264-9.662,41.519-16.72a4.406,4.406,0,0,1,5.733,2.441q.076.189.135.385l30.331,101.562a4.387,4.387,0,0,1-2.576,5.348Z" transform="translate(360 91.102)" fill="#6c63ff"/>
    <path id="Path_3915-575" data-name="Path 3915" d="M574.875,498.469c-11.068-3.906-22.507-7.327-34-10.169l-.577-.143,5.834,19.535,29.724-8.877Zm-28.285,8.38-5.3-17.747c10.937,2.723,21.821,5.97,32.377,9.661Zm86.282,18.028q-7.728-4.37-15.678-8.369-2.192-1.1-4.4-2.176-13.462-6.549-27.336-11.941l-.108-.042L547.88,513.539,558.112,547.8l75.452-22.534Zm-74.3,22.082-9.845-32.965,36.6-10.93q13.379,5.2,26.452,11.526,2.27,1.1,4.523,2.227,7.873,3.942,15.546,8.258Zm74.3-22.082q-7.728-4.37-15.678-8.369-2.192-1.1-4.4-2.176-13.462-6.549-27.336-11.941l-.108-.042L547.88,513.539,558.112,547.8l75.452-22.534Zm-74.3,22.082-9.845-32.965,36.6-10.93q13.379,5.2,26.452,11.526,2.27,1.1,4.523,2.227,7.873,3.942,15.546,8.258Zm16.307-48.49c-11.068-3.906-22.507-7.327-34-10.169l-.577-.143,5.834,19.535,29.724-8.877Zm-28.285,8.38-5.3-17.747c10.937,2.723,21.821,5.97,32.377,9.661Zm28.285-8.38c-11.068-3.906-22.507-7.327-34-10.169l-.577-.143,5.834,19.535,29.724-8.877Zm-28.285,8.38-5.3-17.747c10.937,2.723,21.821,5.97,32.377,9.661Zm86.282,18.028q-7.728-4.37-15.678-8.369-2.192-1.1-4.4-2.176-13.462-6.549-27.336-11.941l-.108-.042L547.88,513.539,558.112,547.8l75.452-22.534Zm-74.3,22.082-9.845-32.965,36.6-10.93q13.379,5.2,26.452,11.526,2.27,1.1,4.523,2.227,7.873,3.942,15.546,8.258ZM527.708,563.25l.194.65,25.654-7.661,2.813,9.419-25.654,7.661.194.65,26.3-7.855-3.2-10.718Zm37.1,6.962,1.966,6.582.632-.254-1.754-5.872L665.68,540.794l-.194-.65Zm95.929-45.982-.194-.65L559.858,553.649l3.2,10.718L663.74,534.3l-.194-.65L563.515,563.523,560.7,554.1Zm-74.773-29.139a330.783,330.783,0,0,0-47.119-14.184l-1.964-6.577-.632.254,1.979,6.628.664.4a330.106,330.106,0,0,1,46.936,14.152l.108.042,60.881-18.182-.194-.65Zm-46.516,13.892-25.654,7.662.194.65,26.3-7.855-9.726-32.566-.632.254Zm109.117-25.512-53.522,15.984.872.366q12.313,5.181,24.563,11.455,1.741.891,3.479,1.807,8.647,4.541,17.16,9.588l.63.157,17.051-5.092-.194-.65-17.01,5.08q-8.423-5-17-9.514-1.716-.9-3.436-1.788-11.99-6.159-24.109-11.3l51.713-15.444ZM532.655,579.814l.194.65L558.5,572.8l1.951,6.535.632-.254-2.128-7.124ZM515.73,523.14l.194.65,25.654-7.661,9.845,32.965-25.654,7.661.194.65,26.3-7.855-10.233-34.264Zm59.145-24.671c-11.068-3.906-22.507-7.327-34-10.169l-.577-.143,5.834,19.535,29.724-8.877Zm-28.285,8.38-5.3-17.747c10.937,2.723,21.821,5.97,32.377,9.661Zm86.282,18.028q-7.728-4.37-15.678-8.369-2.192-1.1-4.4-2.176-13.462-6.549-27.336-11.941l-.108-.042L547.88,513.539,558.112,547.8l75.452-22.534Zm-74.3,22.082-9.845-32.965,36.6-10.93q13.379,5.2,26.452,11.526,2.27,1.1,4.523,2.227,7.873,3.942,15.546,8.258Zm16.307-48.49c-11.068-3.906-22.507-7.327-34-10.169l-.577-.143,5.834,19.535,29.724-8.877Zm-28.285,8.38-5.3-17.747c10.937,2.723,21.821,5.97,32.377,9.661Zm86.282,18.028q-7.728-4.37-15.678-8.369-2.192-1.1-4.4-2.176-13.462-6.549-27.336-11.941l-.108-.042L547.88,513.539,558.112,547.8l75.452-22.534Zm-74.3,22.082-9.845-32.965,36.6-10.93q13.379,5.2,26.452,11.526,2.27,1.1,4.523,2.227,7.873,3.942,15.546,8.258Z" transform="translate(360 91.102)" fill="#fff"/>
    <path id="Path_3916-576" data-name="Path 3916" d="M583.493,501.529c2.456,8.225-6.965,31-6.965,31s-20.366-13.876-22.822-22.1a15.543,15.543,0,1,1,29.787-8.9Z" transform="translate(360 91.102)" fill="#f2f2f2"/>
    <path id="Path_3917-577" data-name="Path 3917" d="M575.215,503.3a7.106,7.106,0,1,1-8.842-4.775,7.106,7.106,0,0,1,8.842,4.775Z" transform="translate(360 91.102)" fill="#6c63ff" style="isolation: isolate"/>
    <circle id="Ellipse_675" data-name="Ellipse 675" cx="4.19" cy="4.19" r="4.19" transform="translate(934.35 626.172)" fill="#f2f2f2"/>
    <path id="Path_3918-578" data-name="Path 3918" d="M624.258,484.17l-29.119,8.7a.62.62,0,0,1-.111.024l6.648-27.968a1.006,1.006,0,0,1,1.679-.5l14.024,13.248.672.634Z" transform="translate(360 91.102)" fill="#fff"/>
    <path id="Path_3919-579" data-name="Path 3919" d="M485.758,352.972l-9.942,2.969,2.764-8.546.2-.616.1-.308.671.634Z" transform="translate(498.5 222.299)" opacity="0.2" style="isolation: isolate"/>
    <path id="Path_3920-580" data-name="Path 3920" d="M640.472,479.328l-25.186,7.522,2.763-8.547.2-.616,3.6-11.138a1.343,1.343,0,0,1,1.876-.685,1.2,1.2,0,0,1,.126.087Z" transform="translate(360 91.102)" fill="#fff"/>
    <path id="Path_1242-581" data-name="Path 1242" d="M937.435,724.247l67.14,19.619c4.69.9,9.445-1.249,11.43-5.16h0a8.616,8.616,0,0,0-3.539-11.336c-13.241-8.121-15.872-13.885-20.71-23.7-4.474-16.28-5.284-15.853-13.286-7.823-15.171,8.04-22.379,2.353-31.829-7.651l-14.567,24.7a7.215,7.215,0,0,0-.327,6.815,8.622,8.622,0,0,0,5.687,4.536Z" transform="matrix(0.966, -0.259, 0.259, 0.966, -394.13, 401.6)" fill="#090814"/>
  </g>
</svg>